<?xml version="1.0" encoding="UTF-8" standalone="no"?>
<!-- Created with Inkscape (http://www.inkscape.org/) -->

<svg
   width="142.26546mm"
   height="30.558128mm"
   viewBox="0 0 142.26546 30.558129"
   version="1.1"
   id="svg1"
   xml:space="preserve"
   xmlns="http://www.w3.org/2000/svg"
   xmlns:svg="http://www.w3.org/2000/svg"><defs
     id="defs1"><filter
       style="color-interpolation-filters:sRGB"
       id="filter2"
       x="0"
       y="0"
       width="1"
       height="1"><feComposite
         in2="SourceGraphic"
         operator="arithmetic"
         k1="0"
         k2="1"
         result="composite1"
         id="feComposite1"
         k3="0"
         k4="0" /><feColorMatrix
         in="composite1"
         values="1"
         type="saturate"
         result="colormatrix1"
         id="feColorMatrix1" /><feFlood
         flood-opacity="1"
         flood-color="rgb(0,0,0)"
         result="flood1"
         id="feFlood1" /><feBlend
         in="flood1"
         in2="colormatrix1"
         mode="multiply"
         result="blend1"
         id="feBlend1" /><feBlend
         in2="blend1"
         mode="screen"
         result="blend2"
         id="feBlend2" /><feColorMatrix
         in="blend2"
         values="1"
         type="saturate"
         result="colormatrix2"
         id="feColorMatrix2" /><feComposite
         in="colormatrix2"
         in2="SourceGraphic"
         operator="in"
         result="composite2"
         id="feComposite2" /></filter></defs><g
     id="layer1"
     transform="translate(-22.855147,-42.909694)"><g
       id="g1"><path
         d="m 36.393346,73.086823 h 0.508 c 0.3048,0.0254 0.635,0.0254 0.9652,0 0.3048,0 0.635,-0.0254 0.9398,-0.0508 0.3048,-0.0254 0.5842,-0.0762 0.8382,-0.1778 0.254,-0.1016 0.4826,-0.2032 0.6858,-0.3556 0.2032,-0.1524 0.3556,-0.3556 0.4572,-0.6096 0.1016,-0.254 0.1778,-0.5334 0.1778,-0.889 0,-0.7112 -0.2032,-1.3208 -0.6096,-1.8796 -0.4064,-0.5334 -0.8636,-0.9652 -1.4224,-1.2954 -0.5588,-0.3048 -1.1176,-0.6096 -1.6764,-0.889 -0.5588,-0.254 -1.0414,-0.5588 -1.4478,-0.889 -0.406399,-0.3302 -0.584199,-0.7112 -0.584199,-1.1176 0,-0.6096 0.2794,-1.0922 0.863599,-1.4478 0.5588,-0.3556 1.1938,-0.5842 1.905,-0.7366 0.7112,-0.1524 1.3462,-0.4064 1.9304,-0.8128 0.5588,-0.381 0.8636,-0.889 0.8636,-1.5494 0,-0.6604 -0.7366,-1.2954 -2.159,-1.905 -1.4478,-0.5842 -2.667,-0.889 -3.632199,-0.889 -0.9652,0 -1.778,0.381 -2.4638,1.1176 -0.6858,0.762 -1.016,1.6002 -1.016,2.5654 0,0.8128 0.127,1.524 0.4318,2.1844 0.3048,0.6604 0.6604,1.1938 1.0922,1.6256 0.4064,0.4318 0.8382,0.8382 1.2446,1.2446 0.4064,0.4064 0.762,0.889 1.0668,1.397 0.3048,0.5334 0.457199,1.0922 0.457199,1.7018 0,0.762 -0.355599,1.3462 -1.015999,1.7526 -0.6604,0.4318 -1.4478,0.635 -2.3114,0.635 -1.016,0 -1.9812,-0.2794 -2.8448,-0.8636 -0.8636,-0.5588 -1.5748,-1.2954 -2.0828,-2.159 -0.508,-0.8636 -0.9144,-1.7272 -1.1938,-2.6416 -0.3048,-0.889 -0.4318,-1.7018 -0.4318,-2.4384 0,-1.0668 0.254,-2.1844 0.762,-3.302 0.508,-1.1176 1.1176,-2.1336 1.8288,-3.048 0.7112,-0.9144 1.4478,-1.778 2.159,-2.6162 0.7112,-0.8382 1.3462,-1.6764 1.8542,-2.5146 0.508,-0.8382 0.762,-1.6002 0.762,-2.286 0,-0.6096 -0.2286,-1.1176 -0.635,-1.5748 -0.4064,-0.4572 -1.0922,-0.6858 -2.0066,-0.6858 h -7.7978 c 0.5842,0.6096 0.889,1.6002 0.889,2.9972 v 19.4056 c 0,1.4224 -0.3048,2.413 -0.889,2.9972 z m 5.460995,-3.9624 c 0,1.2192 0.4318,2.2606 1.3208,3.0988 0.889,0.8382 1.9558,1.2446 3.2004,1.2446 0.8128,0 1.5494,-0.1016 2.2098,-0.3556 0.6604,-0.254 1.143,-0.508 1.4732,-0.8128 0.3048,-0.3048 0.635,-0.5588 0.9398,-0.8128 0.3048,-0.254 0.5842,-0.381 0.8128,-0.381 0.3302,0 0.5588,0.3048 0.6604,0.889 0.127,0.7366 0.5588,1.0922 1.3208,1.0922 h 6.223 c -0.6096,-0.5842 -0.889,-1.5748 -0.889,-2.9972 v -7.5438 c 0,-0.9144 -0.1778,-1.8288 -0.5334,-2.7178 -0.3556,-0.889 -0.889,-1.7018 -1.5494,-2.4384 -0.6858,-0.7366 -1.6002,-1.3208 -2.7178,-1.778 -1.1176,-0.4572 -2.3876,-0.6858 -3.7846,-0.6858 -3.302,0 -5.6642,0.6858 -7.0866,2.032 -0.127,0.127 -0.2286,0.254 -0.3048,0.381 -0.1016,0.1524 -0.1524,0.3048 -0.1778,0.508 -0.0254,0.2032 -0.0508,0.3556 -0.0508,0.4572 0,0.1016 0,0.3048 0,0.5588 0,0.254 0.0254,0.4318 0.0254,0.4826 v 1.397 c 0,0.2286 0.0762,0.4318 0.2286,0.5842 0.1524,0.1524 0.3556,0.2286 0.5588,0.2286 0.2794,0 0.5842,-0.1778 0.9398,-0.5334 0.3556,-0.3556 0.7112,-0.7874 1.0922,-1.2954 0.3556,-0.508 0.762,-1.016 1.1938,-1.524 0.4064,-0.508 0.9144,-0.9652 1.4732,-1.3208 0.5588,-0.3556 1.1176,-0.5334 1.7272,-0.5588 0.4318,0 0.8128,0.0762 1.1176,0.2286 0.3048,0.1524 0.5334,0.381 0.6858,0.635 0.1524,0.2794 0.254,0.5588 0.3048,0.8128 0.0508,0.2794 0.1016,0.5842 0.1016,0.889 0,0.635 -0.3048,1.016 -0.9144,1.1176 -1.27,0.2794 -2.4638,0.6604 -3.5306,1.1176 -1.0922,0.4572 -2.1082,1.0668 -3.048,1.778 -0.9398,0.7112 -1.6764,1.6002 -2.2098,2.667 -0.5588,1.0668 -0.8128,2.2606 -0.8128,3.556 z m 9.6012,-7.4676 c 0.3302,0 0.5588,0.127 0.7112,0.3556 0.127,0.254 0.2032,0.6604 0.2032,1.2192 0,0.5334 0,1.2192 0,2.0574 0,0.8382 0.0254,1.524 0.0254,2.0574 0,0.8636 -0.1778,1.5748 -0.5334,2.1082 -0.3556,0.5334 -0.8636,0.7874 -1.524,0.7874 -1.6256,0 -2.413,-1.1684 -2.413,-3.5052 0,-1.4732 0.3556,-2.667 1.0922,-3.6322 0.7366,-0.9652 1.5494,-1.4478 2.4384,-1.4478 z m 8.81382,-10.8966 c 0.127,0.0508 0.254,0.1016 0.3556,0.1524 0.1016,0.0508 0.1778,0.127 0.254,0.2032 0.0762,0.0762 0.1524,0.1524 0.2032,0.2286 0.0508,0.0762 0.1016,0.1778 0.1524,0.2794 0.0254,0.1016 0.0508,0.2032 0.0762,0.254 0,0.0762 0.0254,0.1778 0.0254,0.2794 0,0.1016 0.0254,0.1778 0.0254,0.2286 v 0.2032 0.127 18.288 c 0,0.7112 0.1016,1.2192 0.3048,1.5748 0.2032,0.3556 0.5588,0.508 1.0922,0.508 h 6.223 c -0.6096,-0.5842 -0.889,-1.5748 -0.889,-2.9972 v -21.7932 c 0,-0.2032 -0.0254,-0.381 -0.0254,-0.4826 -0.0254,-0.1016 -0.1016,-0.2286 -0.2032,-0.3302 -0.127,-0.1016 -0.3048,-0.1778 -0.5334,-0.1778 -0.9906,0 -3.3782,0.9398 -7.1628,2.7686 -0.2032,0.1016 -0.2794,0.2286 -0.2794,0.3302 0,0.1524 0.127,0.2794 0.381,0.3556 z m 9.601197,18.3642 c 0,1.2192 0.4318,2.2606 1.3208,3.0988 0.889,0.8382 1.955799,1.2446 3.200399,1.2446 0.8128,0 1.5494,-0.1016 2.2098,-0.3556 0.6604,-0.254 1.143,-0.508 1.4732,-0.8128 0.3048,-0.3048 0.635,-0.5588 0.9398,-0.8128 0.3048,-0.254 0.5842,-0.381 0.8128,-0.381 0.3302,0 0.5588,0.3048 0.6604,0.889 0.127,0.7366 0.5588,1.0922 1.3208,1.0922 h 6.223 c -0.6096,-0.5842 -0.889,-1.5748 -0.889,-2.9972 v -7.5438 c 0,-0.9144 -0.1778,-1.8288 -0.5334,-2.7178 -0.3556,-0.889 -0.889,-1.7018 -1.5494,-2.4384 -0.6858,-0.7366 -1.6002,-1.3208 -2.7178,-1.778 -1.1176,-0.4572 -2.3876,-0.6858 -3.7846,-0.6858 -3.302,0 -5.664199,0.6858 -7.086599,2.032 -0.127,0.127 -0.2286,0.254 -0.3048,0.381 -0.1016,0.1524 -0.1524,0.3048 -0.1778,0.508 -0.0254,0.2032 -0.0508,0.3556 -0.0508,0.4572 0,0.1016 0,0.3048 0,0.5588 0,0.254 0.0254,0.4318 0.0254,0.4826 v 1.397 c 0,0.2286 0.0762,0.4318 0.2286,0.5842 0.1524,0.1524 0.3556,0.2286 0.5588,0.2286 0.2794,0 0.5842,-0.1778 0.9398,-0.5334 0.355599,-0.3556 0.711199,-0.7874 1.092199,-1.2954 0.3556,-0.508 0.762,-1.016 1.1938,-1.524 0.4064,-0.508 0.9144,-0.9652 1.4732,-1.3208 0.5588,-0.3556 1.1176,-0.5334 1.7272,-0.5588 0.4318,0 0.8128,0.0762 1.1176,0.2286 0.3048,0.1524 0.5334,0.381 0.6858,0.635 0.1524,0.2794 0.254,0.5588 0.3048,0.8128 0.0508,0.2794 0.1016,0.5842 0.1016,0.889 0,0.635 -0.3048,1.016 -0.9144,1.1176 -1.27,0.2794 -2.4638,0.6604 -3.5306,1.1176 -1.0922,0.4572 -2.1082,1.0668 -3.047999,1.778 -0.9398,0.7112 -1.6764,1.6002 -2.2098,2.667 -0.5588,1.0668 -0.8128,2.2606 -0.8128,3.556 z m 9.601199,-7.4676 c 0.3302,0 0.5588,0.127 0.7112,0.3556 0.127,0.254 0.2032,0.6604 0.2032,1.2192 0,0.5334 0,1.2192 0,2.0574 0,0.8382 0.0254,1.524 0.0254,2.0574 0,0.8636 -0.1778,1.5748 -0.5334,2.1082 -0.3556,0.5334 -0.8636,0.7874 -1.524,0.7874 -1.6256,0 -2.413,-1.1684 -2.413,-3.5052 0,-1.4732 0.3556,-2.667 1.0922,-3.6322 0.7366,-0.9652 1.5494,-1.4478 2.4384,-1.4478 z m 22.479023,11.43 h 0.508 c 0.3048,0.0254 0.635,0.0254 0.9652,0 0.3048,0 0.635,-0.0254 0.9398,-0.0508 0.3048,-0.0254 0.5842,-0.0762 0.8382,-0.1778 0.254,-0.1016 0.4826,-0.2032 0.6858,-0.3556 0.2032,-0.1524 0.3556,-0.3556 0.4572,-0.6096 0.1016,-0.254 0.1778,-0.5334 0.1778,-0.889 0,-0.7112 -0.2032,-1.3208 -0.6096,-1.8796 -0.4064,-0.5334 -0.8636,-0.9652 -1.4224,-1.2954 -0.5588,-0.3048 -1.1176,-0.6096 -1.6764,-0.889 -0.5588,-0.254 -1.0414,-0.5588 -1.4478,-0.889 -0.4064,-0.3302 -0.5842,-0.7112 -0.5842,-1.1176 0,-0.6096 0.2794,-1.0922 0.8636,-1.4478 0.5588,-0.3556 1.1938,-0.5842 1.905,-0.7366 0.7112,-0.1524 1.3462,-0.4064 1.9304,-0.8128 0.5588,-0.381 0.8636,-0.889 0.8636,-1.5494 0,-0.6604 -0.7366,-1.2954 -2.159,-1.905 -1.4478,-0.5842 -2.667,-0.889 -3.6322,-0.889 -0.965199,0 -1.777999,0.381 -2.463799,1.1176 -0.6858,0.762 -1.016,1.6002 -1.016,2.5654 0,0.8128 0.127,1.524 0.4318,2.1844 0.3048,0.6604 0.6604,1.1938 1.0922,1.6256 0.4064,0.4318 0.8382,0.8382 1.2446,1.2446 0.406399,0.4064 0.761999,0.889 1.066799,1.397 0.3048,0.5334 0.4572,1.0922 0.4572,1.7018 0,0.762 -0.3556,1.3462 -1.016,1.7526 -0.660399,0.4318 -1.447799,0.635 -2.311399,0.635 -1.016,0 -1.9812,-0.2794 -2.8448,-0.8636 -0.8636,-0.5588 -1.5748,-1.2954 -2.0828,-2.159 -0.508,-0.8636 -0.9144,-1.7272 -1.1938,-2.6416 -0.3048,-0.889 -0.4318,-1.7018 -0.4318,-2.4384 0,-1.0668 0.254,-2.1844 0.762,-3.302 0.508,-1.1176 1.1176,-2.1336 1.8288,-3.048 0.7112,-0.9144 1.4478,-1.778 2.159,-2.6162 0.7112,-0.8382 1.3462,-1.6764 1.8542,-2.5146 0.508,-0.8382 0.762,-1.6002 0.762,-2.286 0,-0.6096 -0.2286,-1.1176 -0.635,-1.5748 -0.4064,-0.4572 -1.0922,-0.6858 -2.0066,-0.6858 h -7.7978 c 0.5842,0.6096 0.889,1.6002 0.889,2.9972 v 19.4056 c 0,1.4224 -0.3048,2.413 -0.889,2.9972 z m 5.461,-3.9624 c 0,1.2192 0.4318,2.2606 1.3208,3.0988 0.889,0.8382 1.9558,1.2446 3.2004,1.2446 0.8128,0 1.5494,-0.1016 2.2098,-0.3556 0.6604,-0.254 1.143,-0.508 1.4732,-0.8128 0.3048,-0.3048 0.635,-0.5588 0.9398,-0.8128 0.3048,-0.254 0.5842,-0.381 0.8128,-0.381 0.3302,0 0.5588,0.3048 0.6604,0.889 0.127,0.7366 0.5588,1.0922 1.3208,1.0922 h 6.223 c -0.6096,-0.5842 -0.889,-1.5748 -0.889,-2.9972 v -7.5438 c 0,-0.9144 -0.1778,-1.8288 -0.5334,-2.7178 -0.3556,-0.889 -0.889,-1.7018 -1.5494,-2.4384 -0.6858,-0.7366 -1.6002,-1.3208 -2.7178,-1.778 -1.1176,-0.4572 -2.3876,-0.6858 -3.7846,-0.6858 -3.302,0 -5.6642,0.6858 -7.0866,2.032 -0.127,0.127 -0.2286,0.254 -0.3048,0.381 -0.1016,0.1524 -0.1524,0.3048 -0.1778,0.508 -0.0254,0.2032 -0.0508,0.3556 -0.0508,0.4572 0,0.1016 0,0.3048 0,0.5588 0,0.254 0.0254,0.4318 0.0254,0.4826 v 1.397 c 0,0.2286 0.0762,0.4318 0.2286,0.5842 0.1524,0.1524 0.3556,0.2286 0.5588,0.2286 0.2794,0 0.5842,-0.1778 0.9398,-0.5334 0.3556,-0.3556 0.7112,-0.7874 1.0922,-1.2954 0.3556,-0.508 0.762,-1.016 1.1938,-1.524 0.4064,-0.508 0.9144,-0.9652 1.4732,-1.3208 0.5588,-0.3556 1.1176,-0.5334 1.7272,-0.5588 0.4318,0 0.8128,0.0762 1.1176,0.2286 0.3048,0.1524 0.5334,0.381 0.6858,0.635 0.1524,0.2794 0.254,0.5588 0.3048,0.8128 0.0508,0.2794 0.1016,0.5842 0.1016,0.889 0,0.635 -0.3048,1.016 -0.9144,1.1176 -1.27,0.2794 -2.4638,0.6604 -3.5306,1.1176 -1.0922,0.4572 -2.1082,1.0668 -3.048,1.778 -0.9398,0.7112 -1.6764,1.6002 -2.2098,2.667 -0.5588,1.0668 -0.8128,2.2606 -0.8128,3.556 z m 9.6012,-7.4676 c 0.3302,0 0.5588,0.127 0.7112,0.3556 0.127,0.254 0.2032,0.6604 0.2032,1.2192 0,0.5334 0,1.2192 0,2.0574 0,0.8382 0.0254,1.524 0.0254,2.0574 0,0.8636 -0.1778,1.5748 -0.5334,2.1082 -0.3556,0.5334 -0.8636,0.7874 -1.524,0.7874 -1.6256,0 -2.413,-1.1684 -2.413,-3.5052 0,-1.4732 0.3556,-2.667 1.0922,-3.6322 0.7366,-0.9652 1.5494,-1.4478 2.4384,-1.4478 z m 17.44981,11.43 c -0.6096,-0.5842 -0.889,-1.5748 -0.889,-2.9972 v -6.9088 c 0,-2.3876 0.7366,-3.6068 2.2352,-3.6068 0.9652,0 1.4478,0.762 1.4478,2.2606 v 8.255 c 0,1.4224 -0.3048,2.413 -0.889,2.9972 h 8.509 c -0.6096,-0.5842 -0.889,-1.5748 -0.889,-2.9972 v -4.3434 l -0.0254,-4.8514 c 0,-3.9624 -1.4478,-5.969 -4.3434,-5.969 -0.8128,0 -1.524,0.127 -2.159,0.381 -0.635,0.254 -1.1176,0.5334 -1.4732,0.8636 -0.3556,0.3556 -0.6858,0.6858 -0.9398,1.0414 -0.2794,0.3556 -0.508,0.635 -0.7112,0.889 -0.2032,0.254 -0.4064,0.3556 -0.5842,0.3556 -0.127,0 -0.1778,-0.2032 -0.1778,-0.6096 v -0.4318 c 0,-0.6858 -0.1016,-1.2192 -0.3048,-1.5748 -0.2032,-0.3556 -0.5842,-0.5334 -1.0922,-0.5334 h -6.223 c 0.5842,0.6096 0.889,1.6002 0.889,2.9972 v 11.7856 c 0,1.4224 -0.3048,2.413 -0.889,2.9972 z m 18.36421,0.381 c 1.7272,0 3.1496,-0.8636 4.2164,-2.6162 l 0.1524,-0.2032 c 0.2032,-0.1778 0.3048,-0.1524 0.3048,0.1016 v 0.254 c 0,0.7112 0.1016,1.2192 0.3048,1.5748 0.2032,0.3556 0.5588,0.508 1.0922,0.508 h 6.223 c -0.6096,-0.5842 -0.889,-1.5748 -0.889,-2.9972 v -21.7932 c 0,-0.2032 -0.0254,-0.381 -0.0254,-0.4826 -0.0254,-0.1016 -0.1016,-0.2286 -0.2032,-0.3302 -0.127,-0.1016 -0.3048,-0.1778 -0.5334,-0.1778 -0.3556,0 -0.889,0.127 -1.651,0.381 -0.762,0.254 -1.4478,0.5334 -2.1082,0.8382 -0.6604,0.3048 -1.3462,0.6096 -2.1082,0.9652 -0.762,0.3556 -1.1938,0.5334 -1.2954,0.5842 -0.2032,0.1016 -0.2794,0.2286 -0.2794,0.3302 0,0.1524 0.127,0.2794 0.381,0.3556 0.7112,0.254 1.0922,0.9144 1.0922,1.9558 v 3.556 c 0,0.4572 -0.1524,0.6604 -0.4064,0.6604 -0.1016,0 -0.2794,-0.1016 -0.508,-0.3048 -0.2286,-0.2032 -0.4826,-0.4318 -0.762,-0.6858 -0.2794,-0.254 -0.6858,-0.4826 -1.2192,-0.6858 -0.5588,-0.2032 -1.143,-0.3302 -1.778,-0.3302 -1.2192,0 -2.286,0.3048 -3.2258,0.8636 -0.9652,0.5588 -1.7018,1.3208 -2.2606,2.2606 -0.5588,0.9398 -0.9906,1.9558 -1.27,3.0734 -0.3048,1.1176 -0.4318,2.2606 -0.4318,3.429 0,2.5654 0.635,4.699 1.9304,6.3754 1.27,1.7018 3.0226,2.54 5.2578,2.54 z m 2.8448,-15.875 c 0.3556,0 0.6858,0.127 0.9398,0.381 0.254,0.254 0.4572,0.6096 0.5588,1.016 0.1016,0.4318 0.2032,0.8382 0.254,1.1938 0.0508,0.381 0.0762,0.762 0.0762,1.143 v 4.953 c 0,2.6924 -0.762,4.0132 -2.2352,4.0132 -0.6604,0 -1.2192,-0.1778 -1.6256,-0.5334 -0.4318,-0.3556 -0.7366,-0.9144 -0.9144,-1.651 -0.1778,-0.7112 -0.2794,-1.3716 -0.3302,-1.9558 -0.0508,-0.5842 -0.0508,-1.3462 -0.0508,-2.3114 0,-4.1656 1.0922,-6.2484 3.3274,-6.2484 z"
         id="text1"
         style="font-size:25.4px;font-family:'TAN - NIMBUS';-inkscape-font-specification:'TAN - NIMBUS';stroke-width:0.264583"
         aria-label="LalaLand" /><path
         style="fill:#000000;stroke-width:0.092298"
         d="m 115.00079,54.053118 c -1.1371,-0.202254 -2.09172,-0.444072 -2.93026,-0.74229 -0.48637,-0.172966 -1.12113,-0.431682 -1.29716,-0.528682 l -0.12628,-0.06959 -0.0436,-0.208015 c -0.0614,-0.292751 -0.17304,-1.017934 -0.39322,-2.555157 -0.31804,-2.220314 -0.4946,-3.206554 -0.65077,-3.635119 l -0.0788,-0.216081 0.38415,0.452574 c 0.53859,0.634505 0.54121,0.637239 2.28603,2.390678 0.74543,0.749113 1.30005,1.36048 1.63494,1.802219 0.14626,0.192931 0.27352,0.351437 0.28279,0.352249 0.009,7.84e-4 0.11977,-0.119135 0.24553,-0.266555 0.12577,-0.147417 0.50462,-0.580338 0.84189,-0.962049 0.67411,-0.762891 1.08689,-1.264317 1.31773,-1.600677 0.16995,-0.247652 0.27054,-0.368549 0.30418,-0.365607 0.0236,0.0021 0.52128,0.911824 1.36317,2.491776 0.26588,0.498967 0.52574,0.972481 0.57748,1.052253 0.0888,0.136866 0.0989,0.144675 0.18043,0.138666 0.24136,-0.01778 1.45201,-0.676892 2.50423,-1.363331 0.93016,-0.606804 1.96409,-1.437188 2.58439,-2.075588 0.18457,-0.189953 0.33815,-0.334596 0.34131,-0.321421 0.003,0.01312 -0.12306,0.341738 -0.2804,0.730162 -0.15736,0.388417 -0.66827,1.665589 -1.13535,2.838153 -0.46707,1.172571 -0.87754,2.202999 -0.91215,2.289842 l -0.0629,0.157895 -0.4516,0.08538 c -1.44028,0.272317 -2.90092,0.381151 -4.24695,0.316455 -0.56858,-0.02731 -2.02081,-0.149374 -2.2388,-0.188141 z m 1.89151,-7.61024 c -0.3166,-0.112733 -0.59588,-0.476804 -0.64725,-0.843755 -0.0229,-0.163797 0.008,-0.458406 0.0652,-0.61854 0.0744,-0.20905 0.17991,-0.350395 0.37884,-0.507669 0.23814,-0.188271 0.33956,-0.209187 0.77628,-0.160076 0.27852,0.03129 0.33591,0.04506 0.43255,0.103644 0.51821,0.314027 0.67181,1.073979 0.32864,1.625883 -0.0974,0.156711 -0.3252,0.34247 -0.50535,0.412178 -0.13698,0.05299 -0.17202,0.05575 -0.45297,0.0356 -0.16749,-0.01194 -0.33662,-0.03316 -0.37583,-0.04725 z m 8.00877,0.175383 c -0.41173,-0.217792 -0.62785,-0.626355 -0.58517,-1.10618 0.0407,-0.455239 0.2746,-0.80156 0.65285,-0.965773 l 0.1606,-0.06972 0.35276,0.03086 c 0.34114,0.02985 0.35713,0.03355 0.48601,0.113732 0.32885,0.204456 0.51768,0.569013 0.51204,0.988523 -0.006,0.471414 -0.30285,0.91712 -0.70385,1.057982 -0.13865,0.04871 -0.19144,0.05318 -0.44976,0.03802 -0.26473,-0.01553 -0.30533,-0.024 -0.42548,-0.08744 z m -15.54354,-1.533072 c -0.23912,-0.102381 -0.47303,-0.346242 -0.5826,-0.607405 -0.0567,-0.13493 -0.0572,-0.146145 -0.0238,-0.527104 0.0333,-0.380641 0.0363,-0.39212 0.11618,-0.52136 0.11355,-0.182683 0.36112,-0.386782 0.56511,-0.465947 0.15543,-0.06032 0.182,-0.06291 0.42361,-0.04135 0.2717,0.02423 0.44557,0.07844 0.58471,0.18222 0.12584,0.09385 0.32448,0.364084 0.38088,0.518146 0.0508,0.138786 0.0519,0.165403 0.0216,0.511319 -0.031,0.353973 -0.0343,0.369113 -0.11582,0.504656 -0.12144,0.202067 -0.3894,0.420499 -0.58265,0.474963 -0.19125,0.05389 -0.63244,0.03813 -0.78722,-0.02816 z"
         id="path1" /></g></g></svg>
