<?xml version="1.0" encoding="UTF-8" standalone="no"?>
<!-- Created with Inkscape (http://www.inkscape.org/) -->

<svg
   width="192.95453mm"
   height="115.41537mm"
   viewBox="0 0 192.95453 115.41538"
   version="1.1"
   id="svg1"
   xml:space="preserve"
   xmlns="http://www.w3.org/2000/svg"
   xmlns:svg="http://www.w3.org/2000/svg"><defs
     id="defs1" /><g
     id="layer1"
     transform="translate(-13.31125,-111.84277)"><path
       style="fill:#000000"
       d="m 90.304994,227.1255 c -12.46411,-1.1092 -22.995903,-2.81781 -32.328063,-5.24471 -5.41275,-1.40762 -12.508318,-3.60058 -14.499802,-4.48131 l -1.428659,-0.63182 -0.667579,-2.20399 c -0.9395,-3.10173 -2.828804,-10.82343 -6.656882,-27.20711 -5.52917,-23.66414 -8.366065,-34.14216 -10.456328,-38.62028 l -1.0539,-2.25785 4.573734,4.52203 c 6.412262,6.33977 6.443052,6.3668 26.931025,23.64449 8.752964,7.38145 15.316434,13.45639 19.348108,17.908 1.760772,1.94417 3.283981,3.53486 3.384909,3.53486 0.100928,0 1.180184,-1.39899 2.398347,-3.10886 1.218163,-1.70987 4.898422,-6.74026 8.17835,-11.17864 6.555344,-8.87065 10.537154,-14.67242 12.711036,-18.52084 1.60054,-2.83343 2.57203,-4.23333 2.9378,-4.23333 0.25632,0 6.48725,9.34936 17.06604,25.60717 3.34091,5.13441 6.59278,9.99978 7.22639,10.81192 1.08711,1.39343 1.2042,1.46816 2.07844,1.32629 2.58823,-0.42001 15.03277,-8.677 25.74142,-17.0795 9.46636,-7.42775 19.84181,-17.36659 25.9341,-24.84275 1.81275,-2.22452 3.33386,-3.9307 3.38026,-3.79151 0.0464,0.13919 -1.00519,3.80472 -2.33685,8.14562 -1.33167,4.3409 -5.64001,18.60818 -9.57409,31.70505 -3.93408,13.09688 -7.39142,24.60614 -7.68296,25.57614 l -0.53009,1.76363 -4.79362,1.34802 c -15.28812,4.29918 -30.95045,6.85316 -45.53946,7.4259 -6.16274,0.24193 -21.952212,0.29602 -24.341676,0.0834 z m 13.229176,-83.92536 c -3.5236,-0.9179 -6.881652,-4.5836 -7.782642,-8.49567 -0.4022,-1.74631 -0.34579,-4.95537 0.11843,-6.73762 0.60599,-2.32656 1.61099,-3.95178 3.60958,-5.83715 2.392452,-2.2569 3.467432,-2.57842 8.227402,-2.46073 3.03575,0.0751 3.66817,0.16928 4.76649,0.71009 5.88965,2.90007 8.26521,10.95735 5.08242,17.23827 -0.90373,1.78343 -3.18651,4.00345 -5.06515,4.92591 -1.42842,0.70138 -1.80405,0.76419 -4.85548,0.81193 -1.81902,0.0285 -3.66448,-0.0413 -4.10105,-0.15503 z m 86.60627,-5.66961 c -4.6495,-1.96195 -7.36803,-6.16757 -7.36042,-11.38674 0.007,-4.95194 2.2069,-8.91075 6.1345,-11.04034 l 1.66757,-0.90419 h 3.83646 c 3.71025,0 3.88635,0.0253 5.35319,0.76854 3.74234,1.89624 6.12466,5.65266 6.45993,10.18591 0.37674,5.09404 -2.40276,10.18465 -6.59776,12.08369 -1.45058,0.65667 -2.01616,0.75468 -4.81849,0.83504 -2.872,0.0823 -3.31814,0.0306 -4.67498,-0.54191 z M 20.927556,135.66121 c -2.677649,-0.87926 -5.432503,-3.2904 -6.86181,-6.00569 -0.738446,-1.40285 -0.754496,-1.52339 -0.754496,-5.66667 0,-4.13982 0.01683,-4.26655 0.761849,-5.73686 1.053434,-2.07898 3.532453,-4.51566 5.659413,-5.56276 1.620568,-0.7978 1.905073,-0.85091 4.53308,-0.84621 2.955429,0.005 4.883238,0.42595 6.48298,1.41464 1.446798,0.89417 3.84587,3.62323 4.600096,5.23282 0.679437,1.44999 0.716748,1.73622 0.716748,5.49837 0,3.84976 -0.02322,4.01634 -0.774434,5.55625 -1.119902,2.29566 -3.805706,4.90624 -5.840149,5.67657 -2.013262,0.76231 -6.79015,1.00865 -8.523277,0.43954 z"
       id="path1" /></g></svg>
